# xmcd CD database file
#
# Track frame offsets:
#	150
#	26855
#	53817
#	72982
#	100007
#	129487
#	156987
#	182240
#	211860
#	238602
#	276887
#	302615
#	322157
#
# Disc length: 4742 seconds
#
# Revision: 0
# Processed by: cddbd v1.5.2PL0 Copyright (c) Steve Scherf et al.
# Submitted via: CDex 1.51
#
DISCID=bc12840d
DTITLE=Various Artist - This is mellow 3
DYEAR=1900
DGENRE=New Age
TTITLE0=Heaven
TTITLE1=Oriental dreams
TTITLE2=Uh uh underwear
TTITLE3=Everybody
TTITLE4=Raindance
TTITLE5=Weekends
TTITLE6=Mind games
TTITLE7=Wheels of industry
TTITLE8=Deep inside the mother
TTITLE9=Time is up
TTITLE10=Its makes tou dancing
TTITLE11=Please me
TTITLE12=Discostars
EXTD=
EXTT0=
EXTT1=
EXTT2=
EXTT3=
EXTT4=
EXTT5=
EXTT6=
EXTT7=
EXTT8=
EXTT9=
EXTT10=
EXTT11=
EXTT12=
PLAYORDER=
